<svg width="120" height="44" viewBox="0 0 120 44" fill="none" xmlns="http://www.w3.org/2000/svg">
        <path fill-rule="evenodd" clip-rule="evenodd" d="M23.4601 12.5193V9.50937C23.4601 9.50937 23.7788 7.86274 25.5317 7.86274C27.2845 7.86274 27.5147 9.17296 27.5147 10.0405C27.5147 10.9081 27.5501 12.5016 23.4601 12.5016V12.5193ZM15.1561 27.6223H10.9067C8.81746 27.6223 8.35711 25.4799 8.26858 24.4884C8.32169 21.6732 9.73815 20.54 11.2608 20.54H15.1738V27.6223H15.1561ZM32.2421 2.7104C29.5155 0.0899568 26.0982 -0.0162768 25.213 0.00142889C21.3531 0.00142889 19.0514 1.55953 17.7766 2.85204C15.28 5.40166 15.1561 8.57097 15.1561 9.35002V12.2537H10.9599C10.8359 12.2537 10.712 12.2537 10.588 12.2537C6.32095 12.6433 0 16.2552 0 24.6123C0 24.6831 0 24.7717 0 24.8425C0.24788 29.2866 3.36409 35.8908 10.9067 35.8908H15.1561V44H23.4247V35.8908H30.6132V27.6046H23.4247V20.5223H25.0713C26.0805 20.5577 29.4978 20.5223 32.1713 18.0612C33.5524 16.7864 35.2167 14.4315 35.2167 10.3947C35.2167 6.35776 33.6055 4.00291 32.2421 2.69269V2.7104Z" fill="#231916"></path>
        <path d="M45.0081 14.9978H43.2168L45.9444 7.10001H48.1021L50.8296 14.9978H49.0384L47.0571 8.90483H46.9893L45.0081 14.9978ZM44.8995 11.8903H49.1198V13.193H44.8995V11.8903Z" fill="#231916"></path>
        <path d="M52.704 15.0928C52.4462 15.0928 52.2291 14.9978 52.0527 14.8214C51.8762 14.6449 51.7812 14.4278 51.7812 14.17C51.7812 13.9122 51.8762 13.7086 52.0527 13.5186C52.2291 13.3422 52.4462 13.2472 52.704 13.2472C52.9619 13.2472 53.1654 13.3422 53.3554 13.5186C53.5454 13.695 53.6268 13.9122 53.6268 14.17C53.6268 14.3328 53.5861 14.4957 53.4911 14.6314C53.4097 14.7671 53.2875 14.8892 53.1518 14.9706C53.0161 15.052 52.8669 15.0928 52.6905 15.0928H52.704Z" fill="#231916"></path>
        <path d="M61.6049 7.10013V14.9979H60.1664L56.7332 10.0313H56.6789V14.9979H55.0098V7.10013H56.4753L59.8815 12.0668H59.9493V7.10013H61.6049Z" fill="#231916"></path>
        <path d="M63.9111 15.0926C63.6532 15.0926 63.4361 14.9976 63.2597 14.8212C63.0833 14.6448 62.9883 14.4277 62.9883 14.1699C62.9883 13.912 63.0833 13.7085 63.2597 13.5185C63.4361 13.3421 63.6532 13.2471 63.9111 13.2471C64.1689 13.2471 64.3724 13.3421 64.5624 13.5185C64.7524 13.6949 64.8338 13.912 64.8338 14.1699C64.8338 14.3327 64.7931 14.4956 64.7117 14.6313C64.6303 14.767 64.5081 14.8891 64.3724 14.9705C64.2367 15.0519 64.0875 15.0926 63.9111 15.0926Z" fill="#231916"></path>
        <path d="M69.0142 14.9979H66.2188V7.10013H69.0413C69.8284 7.10013 70.5205 7.26297 71.0904 7.57508C71.6604 7.88719 72.1082 8.34858 72.4203 8.93209C72.7324 9.51561 72.8817 10.2213 72.8817 11.049C72.8817 11.8768 72.7324 12.5825 72.4203 13.166C72.1082 13.7495 71.674 14.2109 71.0904 14.523C70.5069 14.8351 69.8284 14.9979 69.0278 14.9979H69.0142ZM67.8743 13.5731H68.9328C69.4213 13.5731 69.842 13.4916 70.1812 13.3152C70.5205 13.1388 70.7783 12.8674 70.9412 12.501C71.1176 12.1346 71.199 11.6461 71.199 11.0626C71.199 10.4791 71.1176 10.0041 70.9412 9.63774C70.7648 9.27134 70.5205 8.99994 70.1812 8.82353C69.842 8.64712 69.4349 8.5657 68.9328 8.5657H67.8743V13.6002V13.5731Z" fill="#231916"></path>
        <path d="M74.5361 15.0928C74.2782 15.0928 74.0611 14.9978 73.8847 14.8214C73.7083 14.6449 73.6133 14.4278 73.6133 14.17C73.6133 13.9122 73.7083 13.7086 73.8847 13.5186C74.0611 13.3422 74.2782 13.2472 74.5361 13.2472C74.7939 13.2472 74.9974 13.3422 75.1874 13.5186C75.3774 13.695 75.4588 13.9122 75.4588 14.17C75.4588 14.3328 75.4181 14.4957 75.3367 14.6314C75.2553 14.7671 75.1331 14.8892 74.9974 14.9706C74.8617 15.052 74.7125 15.0928 74.5361 15.0928Z" fill="#231916"></path>
        <path d="M80.3459 14.9979H78.5547L81.2823 7.10013H83.4264L86.154 14.9979H84.3627L82.3815 8.90495H82.3272L80.3459 14.9979ZM80.2374 11.8904H84.4577V13.1931H80.2374V11.8904Z" fill="#231916"></path>
        <path d="M88.0807 14.9979L85.8145 7.10013H87.6328L88.9356 12.5825H89.0034L90.4419 7.10013H92.0024L93.4409 12.596H93.5087L94.8115 7.10013H96.6299L94.3772 14.9979H92.7488L91.2425 9.84129H91.1747L89.6819 14.9979H88.0535H88.0807Z" fill="#231916"></path>
        <path d="M98.1077 14.9978H96.3164L99.044 7.10001H101.188L103.916 14.9978H102.124L100.143 8.90483H100.089L98.1077 14.9978ZM97.9991 11.8903H102.219V13.193H97.9991V11.8903Z" fill="#231916"></path>
        <path d="M104.867 14.9979V7.10013H107.975C108.572 7.10013 109.088 7.20869 109.508 7.41224C109.929 7.61579 110.255 7.92791 110.472 8.30787C110.689 8.68783 110.811 9.14921 110.811 9.66488C110.811 10.1805 110.702 10.6419 110.472 11.0219C110.241 11.4019 109.915 11.6868 109.495 11.8904C109.06 12.0939 108.545 12.1889 107.948 12.1889H105.858V10.8455H107.676C108.002 10.8455 108.26 10.8048 108.477 10.7098C108.694 10.6284 108.843 10.4927 108.952 10.3162C109.06 10.1398 109.115 9.92271 109.115 9.66488C109.115 9.40705 109.06 9.17635 108.952 8.99994C108.843 8.82353 108.694 8.68783 108.477 8.59284C108.26 8.49785 108.002 8.45714 107.676 8.45714H106.55V14.9844H104.881L104.867 14.9979ZM109.142 11.4019L111.109 14.9979H109.264L107.337 11.4019H109.142Z" fill="#231916"></path>
        <path d="M114.797 14.9979H112.002V7.10013H114.825C115.612 7.10013 116.304 7.26297 116.874 7.57508C117.444 7.88719 117.891 8.34858 118.204 8.93209C118.516 9.51561 118.665 10.2213 118.665 11.049C118.665 11.8768 118.516 12.5825 118.204 13.166C117.891 13.7495 117.457 14.2109 116.874 14.523C116.304 14.8351 115.612 14.9979 114.811 14.9979H114.797ZM113.658 13.5731H114.716C115.205 13.5731 115.625 13.4916 115.964 13.3152C116.304 13.1388 116.562 12.8674 116.724 12.501C116.901 12.1346 116.982 11.6461 116.982 11.0626C116.982 10.4791 116.901 10.0041 116.724 9.63774C116.562 9.27134 116.304 8.99994 115.964 8.82353C115.625 8.64712 115.218 8.5657 114.716 8.5657H113.658V13.6002V13.5731Z" fill="#231916"></path>
        <path d="M48.8894 20.5073C48.8351 20.3173 48.7537 20.1545 48.6587 20.0052C48.5637 19.8559 48.4416 19.7338 48.3059 19.6388C48.1702 19.5302 48.0073 19.4624 47.8309 19.4081C47.6545 19.3538 47.451 19.3267 47.2338 19.3267C46.8267 19.3267 46.4739 19.4217 46.1754 19.6252C45.8768 19.8288 45.6326 20.1138 45.4697 20.4937C45.3069 20.8737 45.2119 21.3351 45.2119 21.8914C45.2119 22.4478 45.2933 22.9092 45.4697 23.2892C45.6326 23.6691 45.8768 23.9677 46.1754 24.1712C46.4875 24.3748 46.8403 24.4698 47.261 24.4698C47.641 24.4698 47.9666 24.4019 48.2245 24.2662C48.4959 24.1305 48.6994 23.9405 48.8351 23.6963C48.9708 23.452 49.0523 23.1535 49.0523 22.8278L49.3915 22.8821H47.356V21.62H50.6535V22.6107C50.6535 23.3027 50.5043 23.8998 50.2193 24.4019C49.9207 24.904 49.5272 25.284 49.0115 25.5554C48.4959 25.8268 47.9124 25.9625 47.2474 25.9625C46.5011 25.9625 45.8633 25.7996 45.2933 25.4739C44.7369 25.1483 44.3027 24.6869 43.9906 24.0762C43.6785 23.4656 43.5156 22.7464 43.5156 21.9186C43.5156 21.2808 43.6106 20.7108 43.8006 20.2087C43.9906 19.7066 44.2484 19.286 44.5877 18.9332C44.9269 18.5803 45.3205 18.3225 45.7683 18.1325C46.2161 17.9561 46.7046 17.8611 47.2203 17.8611C47.6681 17.8611 48.0888 17.929 48.4687 18.0511C48.8487 18.1732 49.2015 18.3632 49.5001 18.6075C49.7986 18.8382 50.0429 19.1231 50.2329 19.4488C50.4228 19.7745 50.545 20.1273 50.5992 20.5209H48.903L48.8894 20.5073Z" fill="#231916"></path>
        <path d="M51.9004 25.8539V17.9561H55.0215C55.6186 17.9561 56.1207 18.0646 56.555 18.2682C56.9892 18.4717 57.3013 18.7839 57.5184 19.1638C57.7356 19.5574 57.8577 20.0052 57.8577 20.5208C57.8577 21.0365 57.7491 21.4979 57.5184 21.8778C57.2877 22.2578 56.9621 22.5428 56.5414 22.7463C56.1071 22.9499 55.5915 23.0449 54.9944 23.0449H52.9046V21.7014H54.723C55.0351 21.7014 55.3065 21.6607 55.5236 21.5657C55.7407 21.4843 55.89 21.3486 55.9986 21.1722C56.1071 20.9958 56.1479 20.7787 56.1479 20.5208C56.1479 20.263 56.0936 20.0323 55.9986 19.8559C55.9036 19.6795 55.7407 19.5438 55.5236 19.4488C55.3065 19.3538 55.0487 19.3131 54.723 19.3131H53.5967V25.8403H51.9275L51.9004 25.8539ZM56.175 22.2578L58.1427 25.8539H56.2971L54.3702 22.2578H56.175Z" fill="#231916"></path>
        <path d="M60.3967 25.8536H58.6055L61.3331 17.9558H63.4772L66.2048 25.8536H64.4135L62.4323 19.7607H62.378L60.3967 25.8536ZM60.2882 22.7461H64.5085V24.0488H60.2882V22.7461Z" fill="#231916"></path>
        <path d="M73.7494 17.9558V25.8536H72.311L68.8777 20.887H68.8234V25.8536H67.1543V17.9558H68.6199L72.026 22.9225H72.0938V17.9558H73.7494Z" fill="#231916"></path>
        <path d="M77.9283 25.8538H75.1328V17.956H77.9554C78.7425 17.956 79.4346 18.1188 80.0045 18.4309C80.5745 18.743 81.0223 19.2044 81.3344 19.7879C81.6465 20.3714 81.7958 21.0771 81.7958 21.9049C81.7958 22.7326 81.6465 23.4383 81.3344 24.0218C81.0223 24.6053 80.588 25.0667 80.0045 25.3788C79.421 25.6909 78.7425 25.8538 77.9418 25.8538H77.9283ZM76.8019 24.4289H77.8604C78.3489 24.4289 78.7696 24.3475 79.1089 24.1711C79.4481 23.9947 79.706 23.7233 79.8688 23.3569C80.0452 22.9905 80.1266 22.5019 80.1266 21.9184C80.1266 21.3349 80.0452 20.86 79.8688 20.4936C79.6924 20.1272 79.4481 19.8558 79.1089 19.6794C78.7696 19.503 78.3625 19.4215 77.8604 19.4215H76.8019V24.456V24.4289Z" fill="#231916"></path>
        <path d="M85.541 25.8539V17.9561H88.6622C89.2592 17.9561 89.7749 18.0646 90.1956 18.2953C90.6163 18.526 90.9419 18.8381 91.1591 19.2452C91.3762 19.6523 91.4983 20.1137 91.4983 20.6294C91.4983 21.1451 91.3898 21.62 91.1591 22.0135C90.9284 22.4206 90.6027 22.7328 90.182 22.9499C89.7613 23.1806 89.2321 23.2891 88.635 23.2891H86.6538V21.9457H88.3636C88.6893 21.9457 88.9471 21.8914 89.1643 21.7829C89.3814 21.6743 89.5306 21.5115 89.6392 21.3215C89.7478 21.1179 89.7885 20.8872 89.7885 20.6294C89.7885 20.3716 89.7342 20.1409 89.6392 19.9373C89.5306 19.7338 89.3814 19.5845 89.1643 19.4759C88.9471 19.3674 88.6893 19.3131 88.3636 19.3131H87.2373V25.8403H85.5682L85.541 25.8539Z" fill="#231916"></path>
        <path d="M92.5703 25.8538V17.956H95.6915C96.2885 17.956 96.7906 18.0645 97.2249 18.2681C97.6591 18.4716 97.9712 18.7837 98.1884 19.1637C98.4055 19.5572 98.5276 20.005 98.5276 20.5207C98.5276 21.0364 98.4191 21.4978 98.1884 21.8777C97.9577 22.2577 97.632 22.5427 97.2113 22.7462C96.7906 22.9498 96.2614 23.0448 95.6643 23.0448H93.5745V21.7013H95.3929C95.705 21.7013 95.9764 21.6606 96.18 21.5656C96.3971 21.4842 96.5464 21.3485 96.6549 21.1721C96.7635 20.9957 96.8042 20.7785 96.8042 20.5207C96.8042 20.2629 96.7499 20.0322 96.6549 19.8558C96.5464 19.6794 96.3971 19.5437 96.18 19.4487C95.9629 19.3537 95.705 19.313 95.3793 19.313H94.253V25.8402H92.5839L92.5703 25.8538ZM96.8314 22.2577L98.799 25.8538H96.9535L95.0401 22.2577H96.8449H96.8314Z" fill="#231916"></path>
        <path d="M101.364 17.956V25.8538H99.6953V17.956H101.364Z" fill="#231916"></path>
        <path d="M104.308 17.956L105.895 20.6428H105.95L107.551 17.956H109.437L107.022 21.9049L109.478 25.8538H107.565L105.95 23.1533H105.895L104.281 25.8538H102.367L104.837 21.9049L102.408 17.956H104.294H104.308Z" fill="#231916"></path>
        <path d="M43.6104 36.7099V35.5021L46.4194 32.8967C46.6637 32.666 46.8537 32.4624 47.0165 32.2725C47.1794 32.0825 47.3015 31.9061 47.3829 31.7297C47.4643 31.5532 47.5051 31.3633 47.5051 31.1461C47.5051 30.9154 47.4508 30.7119 47.3422 30.5491C47.2336 30.3862 47.0979 30.2505 46.908 30.1555C46.7315 30.0605 46.5144 30.0198 46.2837 30.0198C46.053 30.0198 45.8359 30.0741 45.6459 30.1691C45.4695 30.2641 45.3338 30.3998 45.2253 30.5898C45.1303 30.7662 45.076 30.9833 45.076 31.2411H43.4883C43.4883 30.7255 43.6104 30.2777 43.8411 29.8977C44.0718 29.5177 44.3975 29.2192 44.8182 29.0156C45.2388 28.8121 45.7274 28.7035 46.2702 28.7035C46.813 28.7035 47.3286 28.7985 47.7493 29.0021C48.17 29.2056 48.4957 29.477 48.7264 29.8298C48.9571 30.1827 49.0792 30.5898 49.0792 31.0376C49.0792 31.3361 49.0249 31.6347 48.9028 31.9196C48.7806 32.2046 48.5771 32.5303 48.2785 32.8831C47.98 33.2359 47.5593 33.6566 47.0165 34.1587L45.8631 35.285V35.3393H49.1742V36.7099H43.5426H43.6104Z" fill="#231916"></path>
        <path d="M53.5425 36.8865C52.8776 36.8865 52.3076 36.7237 51.8327 36.398C51.3577 36.0723 50.9913 35.6109 50.7335 34.9867C50.4756 34.376 50.3535 33.6297 50.3535 32.7748C50.3535 31.9199 50.4756 31.1735 50.7335 30.5764C50.9913 29.9658 51.3577 29.5044 51.8327 29.1923C52.3076 28.8802 52.8776 28.7173 53.5425 28.7173C54.2074 28.7173 54.7774 28.8802 55.2523 29.1923C55.7273 29.518 56.0937 29.9793 56.3515 30.5764C56.6094 31.1871 56.7315 31.9199 56.7315 32.7748C56.7315 33.6433 56.6094 34.376 56.3515 35.0003C56.0937 35.6109 55.7273 36.0859 55.2523 36.4116C54.7774 36.7372 54.2074 36.9001 53.5425 36.9001V36.8865ZM53.5425 35.5024C53.9903 35.5024 54.3567 35.2717 54.6281 34.8239C54.8995 34.376 55.0352 33.684 55.0352 32.7748C55.0352 32.1777 54.9809 31.6756 54.8452 31.2821C54.7231 30.8885 54.5467 30.59 54.3296 30.3864C54.1124 30.1829 53.841 30.0879 53.5425 30.0879C53.0947 30.0879 52.7283 30.3186 52.4569 30.7664C52.1855 31.2142 52.0498 31.8927 52.0498 32.7883C52.0498 33.399 52.1041 33.9011 52.2262 34.3082C52.3483 34.7153 52.5247 35.0138 52.7419 35.2174C52.959 35.4209 53.2304 35.5159 53.5289 35.5159L53.5425 35.5024Z" fill="#231916"></path>
        <path d="M57.9114 36.7099V35.5021L60.7204 32.8967C60.9647 32.666 61.1547 32.4624 61.3311 32.2725C61.4939 32.0825 61.6161 31.9061 61.6975 31.7297C61.7789 31.5532 61.8196 31.3633 61.8196 31.1461C61.8196 30.9154 61.7653 30.7119 61.6568 30.5491C61.5482 30.3862 61.4125 30.2505 61.2225 30.1555C61.0461 30.0605 60.829 30.0198 60.5983 30.0198C60.3676 30.0198 60.1505 30.0741 59.9741 30.1691C59.7976 30.2641 59.6484 30.3998 59.5534 30.5898C59.4584 30.7662 59.4041 30.9833 59.4041 31.2411H57.8164C57.8164 30.7255 57.9385 30.2777 58.1692 29.8977C58.3999 29.5177 58.7256 29.2192 59.1463 29.0156C59.567 28.8121 60.0555 28.7035 60.5983 28.7035C61.1411 28.7035 61.6568 28.7985 62.0774 29.0021C62.4981 29.2056 62.8238 29.477 63.0545 29.8298C63.2852 30.1827 63.4073 30.5898 63.4073 31.0376C63.4073 31.3361 63.353 31.6347 63.2309 31.9196C63.1088 32.2046 62.9052 32.5303 62.6067 32.8831C62.3081 33.2359 61.8875 33.6566 61.3446 34.1587L60.1912 35.285V35.3393H63.5023V36.7099H57.8707H57.9114Z" fill="#231916"></path>
        <path d="M67.669 36.8187C67.0991 36.8187 66.5834 36.7237 66.1356 36.5202C65.6878 36.3166 65.335 36.0452 65.0771 35.6924C64.8193 35.3396 64.6836 34.9325 64.6836 34.4711H66.3663C66.3663 34.6611 66.4341 34.8375 66.5563 34.9732C66.6784 35.1089 66.8277 35.231 67.0312 35.3124C67.2212 35.3938 67.4383 35.4346 67.6962 35.4346C67.954 35.4346 68.1711 35.3938 68.3747 35.2989C68.5782 35.2039 68.7275 35.0817 68.8361 34.9189C68.9446 34.7561 68.9989 34.5796 68.9989 34.3625C68.9989 34.1454 68.9446 33.969 68.8225 33.8061C68.7004 33.6433 68.5375 33.5212 68.3204 33.4262C68.1033 33.3312 67.8454 33.2905 67.5469 33.2905H66.8141V32.0692H67.5469C67.8047 32.0692 68.0219 32.0285 68.2118 31.9335C68.4018 31.8385 68.5511 31.7299 68.6596 31.5671C68.7682 31.4178 68.8225 31.2278 68.8225 31.0243C68.8225 30.8207 68.7818 30.6579 68.6868 30.495C68.5918 30.3458 68.4561 30.2236 68.2933 30.1422C68.1304 30.0608 67.9269 30.0201 67.7097 30.0201C67.4926 30.0201 67.2755 30.0608 67.0855 30.1422C66.8955 30.2236 66.7463 30.3322 66.6377 30.4815C66.5291 30.6307 66.4613 30.8072 66.4613 31.0107H64.86C64.86 30.5629 64.9957 30.1558 65.2535 29.803C65.5114 29.4501 65.8506 29.1787 66.2713 28.9888C66.7055 28.7988 67.1805 28.6902 67.7233 28.6902C68.2661 28.6902 68.7411 28.7852 69.1482 28.9888C69.5553 29.1923 69.881 29.4501 70.0981 29.7894C70.3288 30.1286 70.4373 30.495 70.4373 30.9157C70.4373 31.3635 70.3016 31.7299 70.0302 32.0285C69.7588 32.327 69.3924 32.517 68.9582 32.5984V32.6527C69.5417 32.7205 69.976 32.9241 70.2881 33.2498C70.5866 33.5755 70.7495 33.9826 70.7359 34.4847C70.7359 34.9325 70.6137 35.3396 70.3423 35.6788C70.0709 36.0181 69.7181 36.303 69.2703 36.5066C68.8089 36.7101 68.2933 36.8051 67.6962 36.8051L67.669 36.8187Z" fill="#231916"></path>
        </svg>