<svg width="24" height="24" viewBox="0 0 24 24" fill="none" xmlns="http://www.w3.org/2000/svg">
          <path fill-rule="evenodd" clip-rule="evenodd" d="M18.84 4C19.6793 4.00159 20.4835 4.33643 21.0759 4.93089C21.6683 5.52536 22.0004 6.33076 21.999 7.17V14.69C21.999 16.44 20.584 17.86 18.84 17.86H14.127L12.519 20.48C12.519 20.48 12.505 20.51 12.464 20.558C12.4159 20.6389 12.3475 20.7058 12.2655 20.7521C12.1836 20.7984 12.091 20.8226 11.9969 20.8222C11.9028 20.8218 11.8104 20.7968 11.7289 20.7498C11.6473 20.7028 11.5795 20.6353 11.532 20.554C11.5125 20.5307 11.4948 20.506 11.479 20.48L9.87103 17.86H5.15803C4.74244 17.8593 4.33106 17.7768 3.94737 17.6171C3.56368 17.4575 3.21521 17.2238 2.92185 16.9294C2.6285 16.635 2.39601 16.2857 2.23767 15.9015C2.07933 15.5173 1.99824 15.1056 1.99903 14.69V7.17C1.99903 5.42 3.41303 4 5.15803 4H18.84ZM17.605 9.526H17.55C17.254 9.534 15.873 9.662 15.873 11.403V11.431C15.879 11.661 15.98 13.219 17.557 13.219H17.592C17.737 13.217 18.302 13.181 18.632 12.752V13.038C18.632 13.038 18.719 13.933 17.852 13.933H17.557V15.018H18.059C18.279 15.01 19.822 14.898 19.822 13.105V9.65H18.632V9.992L18.626 9.984C18.4987 9.83879 18.3417 9.72272 18.1655 9.64369C17.9893 9.56465 17.7981 9.52451 17.605 9.526ZM5.40003 8.051H4.17503V13.152H5.41303V12.752C5.45603 12.825 5.75703 13.279 6.44103 13.279C6.44103 13.279 8.16603 13.216 8.16603 11.376C8.16603 11.376 8.10303 9.51 6.44103 9.51C6.44103 9.51 5.89503 9.51 5.40003 9.992V8.051ZM13.184 9.526H13.154C12.906 9.536 11.161 9.661 11.161 11.416V11.471C11.171 11.781 11.312 13.279 13.184 13.279H13.214C13.47 13.269 15.254 13.144 15.254 11.416V11.39C15.254 11.171 15.179 9.526 13.184 9.526ZM8.56003 7.936V9.116L8.57903 9.117C8.67703 9.124 9.11903 9.207 9.11903 10.132V13.152H10.299L10.298 9.792C10.288 9.464 10.158 7.936 8.56003 7.936ZM6.17103 10.63C6.37975 10.63 6.57993 10.7129 6.72752 10.8605C6.87511 11.0081 6.95803 11.2083 6.95803 11.417C6.95803 11.6257 6.87511 11.8259 6.72752 11.9735C6.57993 12.1211 6.37975 12.204 6.17103 12.204C5.9623 12.204 5.76213 12.1211 5.61454 11.9735C5.46694 11.8259 5.38403 11.6257 5.38403 11.417C5.38403 11.2083 5.46694 11.0081 5.61454 10.8605C5.76213 10.7129 5.9623 10.63 6.17103 10.63ZM13.185 10.63C13.3938 10.63 13.5939 10.7129 13.7415 10.8605C13.8891 11.0081 13.972 11.2083 13.972 11.417C13.972 11.6257 13.8891 11.8259 13.7415 11.9735C13.5939 12.1211 13.3938 12.204 13.185 12.204C12.9763 12.204 12.7761 12.1211 12.6285 11.9735C12.4809 11.8259 12.398 11.6257 12.398 11.417C12.398 11.2083 12.4809 11.0081 12.6285 10.8605C12.7761 10.7129 12.9763 10.63 13.185 10.63ZM17.901 10.63C18.1098 10.63 18.3099 10.7129 18.4575 10.8605C18.6051 11.0081 18.688 11.2083 18.688 11.417C18.688 11.6257 18.6051 11.8259 18.4575 11.9735C18.3099 12.1211 18.1098 12.204 17.901 12.204C17.6923 12.204 17.4921 12.1211 17.3445 11.9735C17.1969 11.8259 17.114 11.6257 17.114 11.417C17.114 11.2083 17.1969 11.0081 17.3445 10.8605C17.4921 10.7129 17.6923 10.63 17.901 10.63Z" fill="currentColor"></path>
          </svg>