<svg width="67" height="34" viewBox="0 0 67 34" fill="none" xmlns="http://www.w3.org/2000/svg">
        <g clip-path="url(#clip0_13874_18773)">
        <path d="M66.8284 0H0.445312V34H66.8284V0Z" fill="white"></path>
        <path d="M32.826 1.61928H2.06458V32.3831H32.826V1.61928Z" fill="#EC1D26"></path>
        <path d="M8.54895 25.906H13.4068V14.5735H8.54895V25.906ZM10.9695 7.77252C9.44854 7.77252 8.2179 9.00557 8.2179 10.5241C8.2179 12.0426 9.45094 13.2757 10.9695 13.2757C12.488 13.2757 13.721 12.0426 13.721 10.5241C13.721 9.00557 12.488 7.77252 10.9695 7.77252ZM21.4936 8.09398V12.9518H26.349V8.09398H21.4936ZM15.0165 25.906H19.8743V8.09398H15.0165V25.9036V25.906ZM21.4936 19.4289H26.349V14.5711H21.4936V19.4289Z" fill="white"></path>
        <path d="M65.2068 1.61928H34.4453V32.3831H65.2068V1.61928Z" fill="#EC1D26"></path>
        <path d="M39.8046 8.12036C41.2871 8.12036 42.393 8.74408 42.393 10.4545C42.393 12.0738 41.2559 12.7503 39.8046 12.7503H38.6051V8.12036H39.8046ZM39.4903 12.0402H39.723C40.697 12.0402 41.4766 11.6348 41.4766 10.4473C41.4766 9.19988 40.697 8.84964 39.723 8.84964H39.4903V12.0402Z" fill="white"></path>
        <path d="M43.2255 8.12036H45.8211V8.89042H44.0987V10.0059H45.682V10.7544H44.0987V11.9754H45.8403V12.7503H43.2255V8.12036Z" fill="white"></path>
        <path d="M49.1028 8.96239C48.7573 8.81606 48.4815 8.76328 48.2104 8.76328C47.745 8.76328 47.4499 8.96959 47.4499 9.28625C47.4499 9.57172 47.5939 9.75164 48.2416 9.99633C49.0596 10.301 49.405 10.6992 49.405 11.3829C49.405 12.2729 48.7645 12.8295 47.7522 12.8295C47.3324 12.8295 46.9533 12.7623 46.5887 12.6304L46.6703 11.8147C47.0469 12.0066 47.3923 12.081 47.7018 12.081C48.1672 12.081 48.5007 11.8747 48.5007 11.5029C48.5007 11.1502 48.3183 10.9655 47.6514 10.7064C46.8718 10.4089 46.5383 10.0371 46.5383 9.3798C46.5383 8.55697 47.174 8.0388 48.1096 8.0388C48.4983 8.0388 48.8269 8.08438 49.1724 8.20433L49.1028 8.95999V8.96239Z" fill="white"></path>
        <path d="M50.1943 8.12036H51.0795V12.7503H50.1943V8.12036Z" fill="white"></path>
        <path d="M55.5512 9.08234C55.2801 8.93601 54.8411 8.82326 54.3877 8.82326C53.4569 8.82326 52.8548 9.43978 52.8548 10.4209C52.8548 11.4021 53.4017 12.0258 54.3685 12.0258C54.5508 12.0258 54.7451 12.0066 54.8843 11.9587V10.8048H53.9487V10.0611H55.7263V12.5488C55.2561 12.7215 54.7523 12.7935 54.2485 12.7935C52.9027 12.7935 51.9048 11.8915 51.9048 10.4113C51.9048 8.93121 52.8716 8.06999 54.3925 8.06999C54.8267 8.06999 55.2537 8.11557 55.6111 8.24991L55.5488 9.07994L55.5512 9.08234Z" fill="white"></path>
        <path d="M59.5478 8.12036H60.3466V12.7503H59.2287L58.1036 10.4809C57.8781 10.0227 57.5878 9.36061 57.4679 9.05594H57.4559C57.4751 9.34142 57.4871 10.1906 57.4871 10.5889V12.7503H56.6882V8.12036H57.8685L58.9744 10.4089C59.1375 10.74 59.4398 11.4381 59.5717 11.7619H59.5837C59.5645 11.4237 59.5454 10.5289 59.5454 10.0635V8.12036H59.5478Z" fill="white"></path>
        <path d="M42.5825 19.3378H41.6205L41.2367 18.2702H39.4087L39.0249 19.3378H38.1133L39.8357 14.7078H40.8337L42.5801 19.3378H42.5825ZM40.6346 16.4854C40.541 16.2072 40.3899 15.677 40.3323 15.4371H40.3203C40.2579 15.6746 40.0948 16.2072 39.9988 16.4854L39.6342 17.5673H40.9968L40.6322 16.4854H40.6346Z" fill="white"></path>
        <path d="M45.7586 16.2383C45.7154 16.0272 45.6267 15.6218 45.5955 15.3699H45.5835C45.5523 15.6218 45.4827 16.02 45.4395 16.2383L44.7846 19.3354H43.6667L42.4529 14.7054H43.4029L44.0386 17.4786C44.0698 17.6297 44.2089 18.3014 44.2473 18.6133H44.2593C44.3025 18.3014 44.4296 17.6321 44.4608 17.4786L45.0317 14.7054H46.2072L46.8117 17.4786C46.8501 17.6369 46.9677 18.3086 47.0132 18.6133H47.0252C47.0684 18.3086 47.1956 17.6513 47.2339 17.4786L47.8625 14.7054H48.7429L47.5674 19.3354H46.4543L45.7634 16.2383H45.7586Z" fill="white"></path>
        <path d="M53.049 19.3378H52.0871L51.7032 18.2702H49.8753L49.4914 19.3378H48.5798L50.3023 14.7078H51.3002L53.0466 19.3378H53.049ZM51.1011 16.4854C51.0076 16.2072 50.8564 15.677 50.7988 15.4371H50.7869C50.7245 15.6746 50.5613 16.2072 50.4654 16.4854L50.1008 17.5673H51.4657L51.1011 16.4854Z" fill="white"></path>
        <path d="M53.6392 14.7078H54.9082C55.9901 14.7078 56.705 14.9525 56.705 15.9217C56.705 16.531 56.3595 16.8956 55.7886 17.0156V17.0276C56.0957 17.1139 56.2108 17.2987 56.3475 17.6441L57.0264 19.3354H56.0525L55.5631 18.0231C55.3808 17.5386 55.2992 17.4138 54.7595 17.4138H54.5268V19.3378H53.6392V14.7078ZM54.5268 16.6965H54.7834C55.4815 16.6965 55.7958 16.5118 55.7958 16.0464C55.7958 15.5427 55.4192 15.4371 54.7834 15.4371H54.5268V16.6965Z" fill="white"></path>
        <path d="M58.9888 14.7078C60.4713 14.7078 61.5772 15.3315 61.5772 17.042C61.5772 18.6613 60.4401 19.3378 58.9888 19.3378H57.7893V14.7078H58.9888ZM58.6745 18.6277H58.9072C59.8812 18.6277 60.6608 18.2223 60.6608 17.0348C60.6608 15.7873 59.8812 15.4371 58.9072 15.4371H58.6745V18.6277Z" fill="white"></path>
        <path d="M38.4635 26.026V25.2535C38.8929 24.8385 40.4546 23.5311 40.4546 22.6867C40.4546 22.2644 40.078 22.0677 39.7037 22.0677C39.3295 22.0677 38.9457 22.2381 38.641 22.4372L38.5691 21.6719C38.9841 21.4608 39.4663 21.3409 39.934 21.3409C40.8121 21.3409 41.3782 21.7823 41.3782 22.6867C41.3782 23.663 40.3946 24.5602 39.6438 25.2991H41.5245V26.0236H38.4635V26.026Z" fill="white"></path>
        <path d="M42.1842 23.7374C42.1842 22.5835 42.5344 21.3433 43.7795 21.3433C45.1253 21.3433 45.3892 22.6699 45.3892 23.7374C45.3892 24.8049 45.1133 26.1051 43.7795 26.1051C42.3617 26.1051 42.1842 24.6994 42.1842 23.7374ZM44.468 23.7374C44.468 23.1448 44.468 22.0293 43.7819 22.0293C43.0958 22.0293 43.1102 23.1448 43.1102 23.7374C43.1102 24.3299 43.103 25.419 43.7819 25.419C44.4608 25.419 44.468 24.3179 44.468 23.7374Z" fill="white"></path>
        <path d="M45.9841 26.026V25.2535C46.4135 24.8385 47.9752 23.5311 47.9752 22.6867C47.9752 22.2644 47.5986 22.0677 47.2244 22.0677C46.8501 22.0677 46.4663 22.2381 46.1617 22.4372L46.0897 21.6719C46.5047 21.4608 46.9869 21.3409 47.4547 21.3409C48.3327 21.3409 48.8988 21.7823 48.8988 22.6867C48.8988 23.663 47.9153 24.5602 47.1644 25.2991H49.0452V26.0236H45.9841V26.026Z" fill="white"></path>
        <path d="M49.5801 24.3227L51.3025 21.42H52.4492V24.3827H53.0369V25.0688H52.4492V26.026H51.5664V25.0688H49.5801V24.3227ZM51.5664 24.3827V22.3844H51.552L50.4101 24.3827H51.564H51.5664Z" fill="white"></path>
        </g>
        <defs>
        <clipPath id="clip0_13874_18773">
        <rect width="66.3831" height="34" fill="white" transform="translate(0.445312)"></rect>
        </clipPath>
        </defs>
        </svg>