<svg xmlns:dc="http://purl.org/dc/elements/1.1/" xmlns:cc="http://creativecommons.org/ns#" xmlns:rdf="http://www.w3.org/1999/02/22-rdf-syntax-ns#" xmlns:svg="http://www.w3.org/2000/svg" xmlns="http://www.w3.org/2000/svg" viewBox="0 0 1094.88 615.86133" height="615.86133" width="1094.88" xml:space="preserve" id="svg2" version="1.1"><metadata id="metadata8"><rdf:rdf><cc:work rdf:about=""><dc:format>image/svg+xml</dc:format><dc:type rdf:resource="http://purl.org/dc/dcmitype/StillImage"></dc:type></cc:work></rdf:rdf></metadata><defs id="defs6"><clipPath id="clipPath38" clipPathUnits="userSpaceOnUse"><path id="path36" d="M 0,461.896 H 821.16 V 0 H 0 Z"></path></clipPath></defs><g transform="matrix(1.3333333,0,0,-1.3333333,0,615.86133)" id="g10"><path id="path12" style="fill:#f1abad;fill-opacity:1;fill-rule:nonzero;stroke:none" d="M 0,345.452 H 114.194 V 459.646 H 0 Z"></path><path id="path14" style="fill:#ec9491;fill-opacity:1;fill-rule:nonzero;stroke:none" d="M 0,231.258 H 114.194 V 345.453 H 0 Z"></path><path id="path16" style="fill:#d74344;fill-opacity:1;fill-rule:nonzero;stroke:none" d="M 0,117.064 H 114.194 V 231.258 H 0 Z"></path><path id="path18" style="fill:#c94441;fill-opacity:1;fill-rule:nonzero;stroke:none" d="M 228.388,117.064 H 114.194 v 114.194 h 114.194 z"></path><path id="path20" style="fill:#cc3840;fill-opacity:1;fill-rule:nonzero;stroke:none" d="M 342.583,2.87 H 228.389 v 114.194 h 114.194 z"></path><path id="path22" style="fill:#eb747c;fill-opacity:1;fill-rule:nonzero;stroke:none" d="M 228.388,231.258 H 114.194 v 114.194 h 114.194 z"></path><path id="path24" style="fill:#d44c4c;fill-opacity:1;fill-rule:nonzero;stroke:none" d="M 342.583,231.258 H 228.389 v 114.194 h 114.194 z"></path><path id="path26" style="fill:#ea6d6b;fill-opacity:1;fill-rule:nonzero;stroke:none" d="M 228.388,345.452 H 114.194 v 114.194 h 114.194 z"></path><path id="path28" style="fill:#eb747c;fill-opacity:1;fill-rule:nonzero;stroke:none" d="M 342.583,345.452 H 228.389 v 114.194 h 114.194 z"></path><path id="path30" style="fill:#332d2b;fill-opacity:1;fill-rule:nonzero;stroke:none" d="m 410.762,460.352 h 21.269 v -88.521 h -21.269 z"></path><g id="g32"><g clip-path="url(#clipPath38)" id="g34"><g transform="translate(445.3365,415.5566)" id="g40"><path id="path42" style="fill:#332d2b;fill-opacity:1;fill-rule:nonzero;stroke:none" d="m 0,0 c 0,29.467 19.724,46.34 42.181,46.34 11.526,0 20.794,-5.347 26.853,-11.526 L 57.984,21.269 c -4.515,4.04 -9.149,6.891 -15.447,6.891 -11.406,0 -20.793,-10.219 -20.793,-27.447 0,-17.586 8.08,-27.804 20.556,-27.804 7.129,0 12.714,3.564 16.873,8.079 L 70.342,-32.319 C 62.855,-40.993 52.994,-45.39 41.468,-45.39 19.011,-45.39 0,-29.943 0,0"></path></g><g transform="translate(541.2252,442.6475)" id="g44"><path id="path46" style="fill:#332d2b;fill-opacity:1;fill-rule:nonzero;stroke:none" d="M 0,0 H -23.884 V 17.704 H 45.271 V 0 H 21.269 V -70.817 H 0 Z"></path></g><g transform="translate(430.3668,285.1567)" id="g48"><path id="path50" style="fill:#332d2b;fill-opacity:1;fill-rule:nonzero;stroke:none" d="M 0,0 H 18.061 L 16.16,7.486 C 13.783,16.278 11.525,26.854 9.149,35.884 H 8.674 C 6.535,26.616 4.159,16.278 1.901,7.486 Z M -3.327,51.806 H 22.101 L 49.548,-36.715 H 27.21 l -5.109,20.318 H -4.04 l -5.109,-20.318 h -21.625 z"></path></g><g transform="translate(477.774,336.9624)" id="g52"><path id="path54" style="fill:#332d2b;fill-opacity:1;fill-rule:nonzero;stroke:none" d="m 0,0 h 21.625 l 5.585,-40.399 c 1.188,-9.268 2.376,-18.536 3.564,-28.041 h 0.476 c 1.663,9.505 3.445,18.892 5.228,28.041 L 45.508,0 H 63.45 l 9.15,-40.399 c 1.782,-9.03 3.326,-18.536 5.108,-28.041 h 0.595 c 1.069,9.505 2.258,18.892 3.327,28.041 L 87.452,0 h 20.08 L 92.204,-88.521 H 65.47 l -7.961,38.498 c -1.426,6.773 -2.614,13.902 -3.446,20.556 H 53.588 C 52.399,-36.121 51.33,-43.25 50.023,-50.023 L 42.3,-88.521 H 16.041 Z"></path></g><g transform="translate(613.941,285.1567)" id="g56"><path id="path58" style="fill:#332d2b;fill-opacity:1;fill-rule:nonzero;stroke:none" d="M 0,0 H 18.061 L 16.159,7.486 C 13.783,16.278 11.525,26.854 9.148,35.884 H 8.674 C 6.535,26.616 4.158,16.278 1.9,7.486 Z M -3.327,51.806 H 22.101 L 49.548,-36.715 H 27.209 l -5.108,20.318 H -4.04 l -5.109,-20.318 h -21.625 z"></path></g><g transform="translate(700.5592,296.3262)" id="g60"><path id="path62" style="fill:#332d2b;fill-opacity:1;fill-rule:nonzero;stroke:none" d="M 0,0 C 10.1,0 15.565,4.396 15.565,12.713 15.565,21.031 10.1,23.764 0,23.764 H -9.506 V 0 Z M -30.774,40.636 H 1.663 c 18.893,0 34.577,-6.535 34.577,-27.923 0,-12.951 -6.06,-21.268 -15.209,-25.546 L 40.755,-47.885 H 16.991 L 0.713,-16.754 H -9.506 v -31.131 h -21.268 z"></path></g><g transform="translate(775.0573,265.5518)" id="g64"><path id="path66" style="fill:#332d2b;fill-opacity:1;fill-rule:nonzero;stroke:none" d="M 0,0 C 14.259,0 24.358,6.535 24.358,27.566 24.358,48.597 14.259,54.419 0,54.419 H -2.852 V 0 Z M -24.12,71.411 H 1.308 c 26.971,0 44.795,-13.071 44.795,-43.845 0,-30.774 -17.824,-44.676 -43.608,-44.676 H -24.12 Z"></path></g><g transform="translate(410.7618,213.5728)" id="g68"><path id="path70" style="fill:#332d2b;fill-opacity:1;fill-rule:nonzero;stroke:none" d="m 0,0 h 21.269 v -35.052 h 0.356 L 46.696,0 H 69.985 L 43.25,-35.527 74.975,-88.521 h -23.17 l -20.912,36.24 -9.624,-13.07 v -23.17 H 0 Z"></path></g><g transform="translate(543.3649,169.7285)" id="g72"><path id="path74" style="fill:#332d2b;fill-opacity:1;fill-rule:nonzero;stroke:none" d="M 0,0 C 0,17.11 -7.248,27.209 -18.893,27.209 -30.537,27.209 -37.666,17.11 -37.666,0 c 0,-17.11 7.129,-28.042 18.773,-28.042 C -7.248,-28.042 0,-17.11 0,0 m -59.41,0 c 0,28.992 16.397,45.389 40.517,45.389 24.121,0 40.518,-16.516 40.518,-45.389 0,-28.992 -16.397,-46.34 -40.518,-46.34 -24.12,0 -40.517,17.348 -40.517,46.34"></path></g><g transform="translate(609.1901,172.9365)" id="g76"><path id="path78" style="fill:#332d2b;fill-opacity:1;fill-rule:nonzero;stroke:none" d="M 0,0 C 10.1,0 15.565,4.396 15.565,12.713 15.565,21.031 10.1,23.764 0,23.764 H -9.506 V 0 Z M -30.774,40.636 H 1.663 c 18.893,0 34.577,-6.535 34.577,-27.923 0,-12.951 -6.06,-21.269 -15.209,-25.546 L 40.755,-47.885 H 16.991 L 0.713,-16.754 H -9.506 v -31.131 h -21.268 z"></path></g><g transform="translate(659.568,213.5728)" id="g80"><path id="path82" style="fill:#332d2b;fill-opacity:1;fill-rule:nonzero;stroke:none" d="M 0,0 H 56.083 V -17.704 H 21.269 V -34.102 H 50.854 V -51.924 H 21.269 V -70.698 H 57.39 V -88.521 H 0 Z"></path></g><g transform="translate(751.0582,161.7676)" id="g84"><path id="path86" style="fill:#332d2b;fill-opacity:1;fill-rule:nonzero;stroke:none" d="M 0,0 H 18.061 L 16.159,7.485 C 13.783,16.278 11.525,26.853 9.148,35.883 H 8.674 C 6.535,26.615 4.158,16.278 1.9,7.485 Z M -3.327,51.805 H 22.101 L 49.548,-36.716 H 27.209 l -5.108,20.319 H -4.04 l -5.109,-20.319 h -21.625 z"></path></g><g transform="translate(405.5333,13.7832)" id="g88"><path id="path90" style="fill:#332d2b;fill-opacity:1;fill-rule:nonzero;stroke:none" d="m 0,0 c 21.388,19.961 36.954,34.695 36.954,46.814 0,8.2 -4.397,12.477 -11.527,12.477 -6.059,0 -10.693,-4.277 -14.97,-8.556 L -1.069,62.143 c 8.674,9.149 16.753,13.664 29.349,13.664 17.109,0 28.992,-10.932 28.992,-27.804 0,-14.377 -13.427,-29.705 -26.735,-43.488 4.396,0.593 10.457,1.188 14.496,1.188 H 61.311 V -12.12 L 0,-12.12 Z"></path></g><g transform="translate(517.4606,45.1514)" id="g92"><path id="path94" style="fill:#332d2b;fill-opacity:1;fill-rule:nonzero;stroke:none" d="m 0,0 c 0,23.289 -4.99,28.041 -11.288,28.041 -6.298,0 -11.407,-4.752 -11.407,-28.041 0,-23.289 5.109,-28.755 11.407,-28.755 C -4.99,-28.755 0,-23.289 0,0 m -42.656,0 c 0,29.468 12.594,44.438 31.368,44.438 18.654,0 31.25,-15.089 31.25,-44.438 0,-29.468 -12.596,-45.151 -31.25,-45.151 -18.774,0 -31.368,15.683 -31.368,45.151"></path></g><g transform="translate(544.3121,13.7832)" id="g96"><path id="path98" style="fill:#332d2b;fill-opacity:1;fill-rule:nonzero;stroke:none" d="m 0,0 c 21.388,19.961 36.953,34.695 36.953,46.814 0,8.2 -4.396,12.477 -11.525,12.477 -6.06,0 -10.694,-4.277 -14.972,-8.556 L -1.069,62.143 c 8.673,9.149 16.754,13.664 29.348,13.664 17.111,0 28.992,-10.932 28.992,-27.804 0,-14.377 -13.426,-29.705 -26.734,-43.488 4.397,0.593 10.456,1.188 14.496,1.188 H 61.312 V -12.12 L 0,-12.12 Z"></path></g><g transform="translate(611.5631,12.3564)" id="g100"><path id="path102" style="fill:#332d2b;fill-opacity:1;fill-rule:nonzero;stroke:none" d="M 0,0 9.743,13.309 C 15.09,8.317 21.269,4.753 28.16,4.753 c 8.199,0 13.546,3.327 13.546,9.506 0,7.248 -4.04,11.525 -22.576,11.525 v 14.972 c 15.091,0 19.844,4.515 19.844,10.932 0,5.822 -3.566,9.03 -10.101,9.03 -5.94,0 -10.456,-2.734 -15.803,-7.487 L 2.377,66.184 c 8.198,6.772 16.991,11.049 27.447,11.049 18.298,0 30.299,-8.673 30.299,-23.882 0,-8.674 -4.871,-15.09 -14.14,-19.011 v -0.595 c 9.744,-2.851 16.992,-9.861 16.992,-20.912 0,-16.159 -15.09,-25.189 -32.676,-25.189 C 16.278,-12.356 6.416,-7.485 0,0"></path></g></g></g></g>
           </svg>