<svg width="24" height="24" viewBox="0 0 24 24" fill="none" xmlns="http://www.w3.org/2000/svg">
        <g clip-path="url(#clip0_9277_254185)">
        <path d="M12 3C6.47793 3 2 6.53565 2 10.899C2 13.7046 3.85059 16.1664 6.63922 17.5713L5.69694 21.0899C5.66299 21.1961 5.68846 21.3064 5.76486 21.3828C5.82003 21.438 5.89219 21.4677 5.96859 21.4677C6.03226 21.4677 6.09593 21.4465 6.14686 21.4083L10.2003 18.6706C10.7818 18.7555 11.3846 18.7979 12 18.7979C17.5221 18.7979 22 15.2623 22 10.899C22 6.53565 17.5221 3 12 3ZM6.95331 12.9915C6.95331 13.3013 6.7708 13.4923 6.47368 13.4923C6.17657 13.4923 5.99406 13.3013 5.99406 12.9915V9.51951H4.98812C4.67402 9.51951 4.55942 9.28606 4.55942 9.08657C4.55942 8.87435 4.70798 8.64939 4.98812 8.64939H7.95501C8.23514 8.64939 8.3837 8.87435 8.3837 9.08657C8.3837 9.2988 8.27334 9.51951 7.95501 9.51951H6.94907V12.9915H6.95331ZM11.5798 13.4923C11.3379 13.4923 11.1851 13.382 11.1129 13.1613L10.9049 12.5076H8.90577L8.69355 13.1528C8.61715 13.3862 8.47284 13.4923 8.23514 13.4923C7.97199 13.4923 7.76401 13.2971 7.76401 13.0509C7.76401 12.9533 7.79372 12.8769 7.80645 12.8429L9.1944 9.16722C9.29202 8.89557 9.53396 8.61119 9.90747 8.61119C10.2343 8.61119 10.4932 8.81493 10.6205 9.16722L11.966 12.8387C12.0085 12.9533 12.0212 13.0467 12.0212 13.0849C12.0212 13.3183 11.8302 13.4966 11.584 13.4966L11.5798 13.4923ZM15.2555 13.0212C15.2513 13.2249 15.0857 13.4372 14.7971 13.4372H13.0144C12.7003 13.4372 12.5136 13.2377 12.5136 12.9066V9.10355C12.5136 8.79371 12.6961 8.6027 12.9932 8.6027C13.2903 8.6027 13.4728 8.79371 13.4728 9.10355V12.567H14.7971C14.9414 12.567 15.0603 12.6137 15.1409 12.6986C15.2216 12.7835 15.2598 12.8981 15.2555 13.017V13.0212ZM19.2368 13.1188C19.1986 13.4669 18.8633 13.4923 18.7615 13.4923C18.736 13.4923 18.7105 13.4923 18.6851 13.4923C18.5068 13.4754 18.4092 13.365 18.2224 13.1146L16.966 11.3998L16.6222 11.7521V13.0382C16.6222 13.2971 16.4185 13.4966 16.1426 13.4966C15.8582 13.4966 15.663 13.3141 15.663 13.0382V9.07384C15.663 8.80219 15.8625 8.6027 16.1426 8.6027C16.4228 8.6027 16.6222 8.79371 16.6222 9.07384V10.6061L18.3073 8.84888C18.3837 8.77248 18.5068 8.67486 18.6893 8.67486C18.9185 8.6791 19.152 8.83615 19.1477 9.11629C19.1477 9.24786 19.0671 9.33275 18.9143 9.50678C18.8803 9.54498 18.8379 9.58742 18.7954 9.63836L17.6452 10.8013L19.0076 12.584C19.1477 12.7665 19.2666 12.9193 19.2411 13.1146L19.2368 13.1188Z" fill="#111111"></path>
        <path d="M9.89478 9.48131L9.17322 11.6587H10.6333L9.91176 9.48131C9.91176 9.48131 9.89478 9.47282 9.89478 9.48131Z" fill="#111111"></path>
        </g>
        <defs>
        <clipPath id="clip0_9277_254185">
        <rect width="24" height="24" fill="white"></rect>
        </clipPath>
        </defs>
        </svg>