<svg width="135" height="46" viewBox="0 0 135 46" fill="none" xmlns="http://www.w3.org/2000/svg">
                    <path d="M58.1468 3.89141C54.9784 3.89141 53.0436 5.42606 52.2103 6.32931C51.067 4.59077 49.1739 3.89141 46.951 3.89141C45.1919 3.86571 43.4827 4.47455 42.138 5.60583V4.30795H38.0375V21.5837H42.1424V11.7181C42.1424 9.28241 43.2836 7.12952 45.8341 7.02209C48.312 6.92124 49.231 8.80886 49.231 10.611V21.5837H53.336V11.7181C53.336 9.28241 54.4771 7.12952 57.0298 7.02209C59.466 6.92124 60.3938 8.75186 60.4224 10.5299V21.5837H64.5274V10.1637C64.5274 5.80533 61.5349 3.89141 58.1468 3.89141Z" fill="#003DA6"></path>
                    <path d="M94.1263 13.3361C94.1263 15.3246 93.6623 18.9244 90.4478 18.9244C87.6973 18.9244 87.1388 16.629 87.1388 15.0703V4.30798H83.014V15.7082C83.014 19.7663 85.5096 21.9937 89.1902 21.9937C91.3207 21.9937 93.0159 21.2045 94.1263 20.0031V21.5772H98.251V4.30798H94.1263V13.3361Z" fill="#003DA6"></path>
                    <path d="M110.284 3.89142C107.897 3.89142 106.386 4.83194 105.469 5.70669V4.30797H101.36V21.5837H105.465V11.7181C105.465 9.28242 106.685 7.12733 109.236 7.01991C111.672 6.91906 112.523 8.80668 112.551 10.5825V21.5837H116.663V10.0454C116.665 6.0465 113.673 3.89142 110.284 3.89142Z" fill="#003DA6"></path>
                    <path d="M75.5142 11.4134C72.17 10.5781 70.9146 9.97741 70.9146 8.8045C70.9146 7.48908 72.4163 6.74368 73.9642 6.83138C75.8155 6.94099 76.8225 7.87275 77.0709 9.17281H80.978C80.6922 6.0794 77.9856 3.70508 73.7553 3.70508C69.8482 3.70508 66.5502 5.77466 66.6095 9.04127C66.6491 11.3345 68.2475 12.7683 70.5892 13.6452C73.1462 14.6011 76.5938 14.9606 76.895 16.5874C77.1962 18.2141 75.4966 19.1305 73.5706 18.9222C71.904 18.7424 70.9563 17.9269 70.5144 16.5391H66.117C66.8514 20.1784 69.7668 22.1822 73.9048 22.1822C78.267 22.1822 81.3584 19.7071 81.2836 16.4931C81.1935 12.948 77.2842 11.8563 75.5142 11.4134Z" fill="#003DA6"></path>
                    <path d="M8.62109 9.01058C6.76099 8.44934 5.21091 7.70832 5.13176 6.06844C5.04161 4.23782 6.62248 3.24249 8.30888 3.30826C10.4922 3.39596 11.3431 4.8166 11.5893 5.85797H15.7932C15.1424 1.09618 10.7846 0 7.96588 0C5.19772 0 0.571661 1.51053 0.571661 6.17806C0.571661 9.29559 2.68681 11.0385 6.15635 12.1895C9.49837 13.301 11.5739 13.8645 11.8334 15.5657C12.1038 17.3503 10.6571 18.8038 8.35505 18.76C6.08819 18.7161 4.68762 17.2911 4.43037 15.9099H0C0.369381 18.7403 2.78135 22.1932 8.13518 22.1932C13.6671 22.1932 16.4133 18.7709 16.2857 15.5811C16.1099 11.1043 12.5128 10.1857 8.62109 9.01058Z" fill="#003DA6"></path>
                    <path d="M130.88 4.30799V5.64971C130.262 5.01791 129.521 4.51961 128.702 4.18581C127.883 3.85202 127.004 3.68987 126.119 3.70947C121.199 3.70947 118.483 7.13832 118.483 12.3868C118.483 17.6353 121.199 21.062 126.119 21.062C127.016 21.0821 127.906 20.9156 128.734 20.5732C129.562 20.2308 130.309 19.7201 130.928 19.0735V19.8496C130.928 22.1976 130.035 24.2782 127.214 24.4382C124.167 24.6092 123.277 22.6098 123.16 22.1757H119.101C119.631 24.8876 121.959 27.7903 126.933 27.7903C132.223 27.7903 135 24.1335 135 19.2598V4.30799H130.88ZM126.645 17.8304C123.989 17.7822 122.601 15.5372 122.601 12.3868C122.601 9.20132 124.015 6.93662 126.728 6.93662C129.442 6.93662 130.822 9.22544 130.822 12.3627C130.822 15.4671 129.308 17.7822 126.645 17.8304Z" fill="#003DA6"></path>
                    <path d="M30.8587 5.62121V5.66067C29.678 4.45707 27.9652 3.70947 25.949 3.70947C21.0041 3.70947 17.7325 7.49348 17.7325 12.9459C17.7325 18.3983 21.0085 22.1845 25.9446 22.1845C27.9608 22.1845 29.6824 21.4347 30.8543 20.2333V20.2727V21.5881H34.9967V4.31018H30.8587V5.62121ZM26.3997 18.9398C23.6756 18.9398 21.8792 16.5413 21.8792 12.9459C21.8792 9.3504 23.6756 6.95416 26.3997 6.95416C29.1239 6.95416 30.7971 9.6376 30.7971 12.9459C30.7971 16.2541 29.1261 18.9398 26.3997 18.9398Z" fill="#003DA6"></path>
                    <path d="M116.694 28.174H0.571655V30.614H116.694V28.174Z" fill="#003DA6"></path>
                    <path d="M9.89419 36.1541C9.70285 36.1541 9.5158 36.2107 9.35671 36.3167C9.19762 36.4227 9.07362 36.5733 9.0004 36.7496C8.92718 36.9259 8.90802 37.1198 8.94535 37.3069C8.98268 37.4941 9.07481 37.6659 9.21011 37.8008C9.34541 37.9358 9.51779 38.0276 9.70545 38.0649C9.89311 38.1021 10.0876 38.083 10.2644 38.01C10.4412 37.9369 10.5923 37.8133 10.6986 37.6547C10.8049 37.496 10.8616 37.3095 10.8616 37.1187C10.861 36.8631 10.7589 36.6181 10.5776 36.4373C10.3963 36.2565 10.1506 36.1547 9.89419 36.1541Z" fill="#003DA6"></path>
                    <path d="M1.23785 45.7501H2.94844V41.6898H7.45357V40.3591H2.94844V37.9365H7.69982V36.6036H1.23785V45.7501Z" fill="#003DA6"></path>
                    <path d="M10.7209 38.8639H9.07184V45.7501H10.7209V38.8639Z" fill="#003DA6"></path>
                    <path d="M42.7822 36.1541C42.5909 36.1541 42.4039 36.2107 42.2448 36.3167C42.0857 36.4227 41.9617 36.5733 41.8885 36.7496C41.8152 36.9259 41.7961 37.1198 41.8334 37.3069C41.8707 37.4941 41.9629 37.6659 42.0982 37.8008C42.2335 37.9358 42.4058 38.0276 42.5935 38.0649C42.7812 38.1021 42.9757 38.083 43.1525 38.01C43.3292 37.9369 43.4803 37.8133 43.5866 37.6547C43.6929 37.496 43.7497 37.3095 43.7497 37.1187C43.7497 36.8629 43.6477 36.6176 43.4663 36.4366C43.2849 36.2557 43.0388 36.1541 42.7822 36.1541Z" fill="#003DA6"></path>
                    <path d="M43.6068 38.8639H41.9578V45.7501H43.6068V38.8639Z" fill="#003DA6"></path>
                    <path d="M54.5541 36.6036H52.9051V45.7501H54.5541V36.6036Z" fill="#003DA6"></path>
                    <path d="M88.6075 43.72L87.2091 38.8639H85.3468L83.8012 43.8252L82.4138 38.8639H80.6922L82.8557 45.7501H84.6345L86.2109 40.7055L87.6335 45.7501H89.3683L91.6857 38.8639H90.0257L88.6075 43.72Z" fill="#003DA6"></path>
                    <path d="M110.57 38.8639H108.633L106.3 41.2141V36.6036H104.651V45.7501H106.3V42.5098L108.895 45.7501H110.773L107.633 41.7819L110.57 38.8639Z" fill="#003DA6"></path>
                    <path d="M95.3531 38.6249C93.3545 38.6249 91.822 39.9863 91.822 42.308C91.822 44.6297 93.3611 45.989 95.3531 45.989C97.3451 45.989 98.8842 44.6275 98.8842 42.308C98.8842 39.9885 97.3451 38.6249 95.3531 38.6249ZM95.3531 44.7635C94.4077 44.7635 93.4952 44.029 93.4952 42.3146C93.4952 40.6002 94.4077 39.8658 95.3531 39.8658C96.2986 39.8658 97.211 40.598 97.211 42.3146C97.211 44.0312 96.2964 44.7635 95.3531 44.7635Z" fill="#003DA6"></path>
                    <path d="M78.3154 40.1881V43.823C78.3047 43.9372 78.3177 44.0525 78.3536 44.1615C78.3896 44.2705 78.4477 44.3709 78.5242 44.4566C78.7281 44.6044 78.9793 44.6722 79.23 44.6473H80.0875V46H78.9442C78.212 46 77.6492 45.829 77.26 45.487C76.8708 45.145 76.6751 44.5903 76.6751 43.823V40.1881H75.6044V38.8726H76.6751V36.9236H78.3154V38.8726H80.0875V40.1881H78.3154Z" fill="#003DA6"></path>
                    <path d="M103.754 40.1683C103.325 40.1476 102.899 40.2492 102.525 40.4612C102.152 40.6731 101.847 40.9868 101.646 41.3654C101.41 41.8455 101.446 42.3738 101.452 42.9C101.452 43.2946 101.452 45.7501 101.452 45.7501H99.8032V38.8639H101.452V39.7211C101.674 39.4121 101.979 39.1726 102.332 39.0305C102.701 38.8609 103.103 38.7734 103.51 38.774C103.594 38.7739 103.678 38.7783 103.761 38.7871V40.1683" fill="#003DA6"></path>
                    <path d="M31.0126 38.6972C30.6606 38.6855 30.3098 38.7434 29.9803 38.8675C29.6509 38.9917 29.3494 39.1797 29.0932 39.4207V38.8639H27.4551V45.75H29.0932V41.8038C29.0932 40.8326 29.5791 39.9732 30.5971 39.9293C31.5667 39.8899 31.9163 40.6419 31.9163 41.35V45.7347H33.5521V41.1307C33.5565 39.5566 32.3626 38.6972 31.0126 38.6972Z" fill="#003DA6"></path>
                    <path d="M15.8702 38.6972C15.5182 38.6855 15.1673 38.7434 14.8379 38.8675C14.5084 38.9917 14.2069 39.1797 13.9507 39.4207V38.8639H12.3127V45.75H13.9485V41.8038C13.9485 40.8326 14.4344 39.9732 15.4502 39.9293C16.422 39.8899 16.7694 40.6419 16.7694 41.35V45.7347H18.4075V41.1307C18.4141 39.5566 17.2224 38.6972 15.8702 38.6972Z" fill="#003DA6"></path>
                    <path d="M24.5792 38.8639V39.4032C24.3222 39.149 24.0165 38.9491 23.6803 38.8154C23.3441 38.6817 22.9843 38.6169 22.6224 38.6249C20.6435 38.6249 19.3485 40.1333 19.3485 42.3081C19.3485 44.4829 20.6523 45.9891 22.6224 45.9891C22.9841 45.997 23.3437 45.9324 23.6798 45.7991C24.016 45.6658 24.3218 45.4664 24.5792 45.213V45.7501H26.2304V38.8639H24.5792ZM22.8005 44.6956C21.7143 44.6956 20.9975 43.7397 20.9975 42.3081C20.9975 40.8765 21.7143 39.9184 22.8005 39.9184C23.8866 39.9184 24.5594 40.9883 24.5594 42.3081C24.5594 43.6279 23.8888 44.6956 22.8005 44.6956Z" fill="#003DA6"></path>
                    <path d="M49.7895 38.8639V39.4032C49.5325 39.149 49.2268 38.9491 48.8905 38.8154C48.5543 38.6817 48.1945 38.6169 47.8326 38.6249C45.8538 38.6249 44.5566 40.1333 44.5566 42.3081C44.5566 44.4829 45.8604 45.9891 47.8326 45.9891C48.1943 45.997 48.5539 45.9324 48.8901 45.7991C49.2262 45.6658 49.5321 45.4664 49.7895 45.213V45.7501H51.4495V38.8639H49.7895ZM48.0107 44.6956C46.9246 44.6956 46.2078 43.7397 46.2078 42.3081C46.2078 40.8765 46.9246 39.9184 48.0107 39.9184C49.0969 39.9184 49.7697 40.9883 49.7697 42.3081C49.7697 43.6279 49.0969 44.6956 48.0107 44.6956Z" fill="#003DA6"></path>
                    <path d="M114.37 41.6964C113.035 41.3631 112.534 41.1242 112.534 40.6572C112.534 40.1288 113.134 39.8351 113.75 39.8701C114.488 39.914 114.893 40.2867 114.99 40.8041H116.546C116.432 39.572 115.352 38.6249 113.668 38.6249C112.109 38.6249 110.795 39.4492 110.81 40.7515C110.825 41.6657 111.47 42.2379 112.395 42.5865C113.415 42.9679 114.79 43.1082 114.911 43.7594C115.031 44.4105 114.352 44.7744 113.591 44.6911C112.932 44.6188 112.549 44.2943 112.373 43.7396H110.614C110.907 45.191 112.07 45.989 113.719 45.989C115.458 45.989 116.691 45.0046 116.661 43.7221C116.632 42.3124 115.073 41.874 114.37 41.6964Z" fill="#003DA6"></path>
                    <path d="M65.3628 36.6036V43.3648L61.8119 36.6036H59.5121V45.7501H61.2227V38.6469L64.9407 45.7501H67.0734V36.6036H65.3628Z" fill="#003DA6"></path>
                    <path d="M37.8703 44.6999C36.771 44.6999 36.085 43.7265 36.085 42.308C36.085 40.8896 36.7644 39.9162 37.8703 39.9162C38.6443 39.9162 39.1654 40.4577 39.3676 41.2141H41.0057C40.7198 39.6421 39.4138 38.6249 37.8022 38.6249C35.7948 38.6249 34.4448 40.0981 34.4448 42.308C34.4448 44.5157 35.7948 45.989 37.8022 45.989C39.4138 45.989 40.7198 44.9717 41.0057 43.3998H39.3676C39.1654 44.1562 38.6443 44.6999 37.8703 44.6999Z" fill="#003DA6"></path>
                    <path d="M75.18 42.6917C75.191 42.5667 75.1976 42.4396 75.1976 42.3058C75.1976 39.9863 73.6585 38.6249 71.6665 38.6249C69.6745 38.6249 68.1332 39.9863 68.1332 42.3058C68.1332 44.6254 69.6723 45.989 71.6665 45.989C73.2803 45.989 74.5886 45.1011 75.0327 43.5358H73.3199C72.9989 44.3776 72.3415 44.7569 71.6665 44.7569C70.787 44.7569 69.9515 44.1321 69.824 42.6917H75.18ZM71.6621 39.8592C72.4404 39.8592 73.2012 40.359 73.4386 41.4969H69.8877C70.1384 40.359 70.8859 39.8592 71.6775 39.8592H71.6621Z" fill="#003DA6"></path>
                </svg>