<svg width="758" height="146" viewBox="0 0 758 146" fill="none" xmlns="http://www.w3.org/2000/svg"><g><path d="M41.69 46.8394C38.7632 53.2114 34.7766 59.0408 29.9 64.0794C24.4824 69.8262 18.2853 74.7845 11.49 78.8094L0 65.3994C8.64314 60.5901 16.1471 53.9729 22 45.9994C27.89 37.8994 31.57 28.4694 31.57 17.8694V5.44937H50.67V17.5294C50.7118 27.1941 54.0967 36.5465 60.25 43.9994C65.9187 51.1712 73.1807 56.9234 81.46 60.7994L71.15 74.7994C57 67.1694 47.73 57.9994 41.69 46.8394ZM31.52 85.4394H108.86V141.849H31.52V85.4394ZM49.64 100.899V126.529H90.64V100.899H49.64ZM108.86 80.1294H90.59V2.35938H108.86V33.2894H130.22V48.7594H108.86V80.1294Z" fill="#003CDC"></path><path d="M181.999 63.9294C177.356 59.7094 173.467 54.7279 170.499 49.1994C168.289 54.4994 164.319 60.1994 159.159 65.6994C153.591 71.566 147.305 76.7066 140.449 80.9994L129.109 67.2994C138.109 61.4094 146.199 54.6294 151.649 46.8194C157.328 39.1415 160.424 29.8591 160.489 20.3094V5.44937H179.929V19.9994C179.929 30.9994 183.469 39.5994 189.209 46.5194C194.659 53.5894 202.469 58.8894 210.279 62.8694L199.999 77.1894C193.408 73.6337 187.349 69.1701 181.999 63.9294ZM231.199 137.149C224.719 142.599 215.739 145.839 205.129 145.839C194.519 145.839 185.689 142.599 179.349 137.149C172.869 131.409 169.189 123.449 169.189 113.589C169.103 109.228 169.967 104.899 171.722 100.905C173.476 96.911 176.079 93.3466 179.349 90.4594C185.689 84.7094 194.519 81.3294 205.129 81.3294C215.739 81.3294 224.719 84.7094 231.199 90.4594C234.408 93.443 236.966 97.0558 238.716 101.072C240.466 105.089 241.369 109.423 241.369 113.804C241.369 118.186 240.466 122.52 238.716 126.536C236.966 130.553 234.408 134.166 231.199 137.149ZM218.199 101.509C214.559 98.3768 209.891 96.6963 205.089 96.7894C194.479 96.7894 187.089 103.569 187.089 113.589C187.089 123.609 194.449 130.529 205.089 130.529C215.729 130.529 223.359 123.749 223.359 113.589C223.368 111.333 222.918 109.099 222.036 107.022C221.154 104.946 219.859 103.07 218.229 101.509H218.199ZM225.299 42.9994H199.519V26.8094H225.299V2.35938H243.569V80.8694H225.299V42.9994Z" fill="#003CDC"></path><path d="M310.631 80.7194C305.747 75.7924 301.671 70.1261 298.551 63.9294C293.101 77.3294 281.611 89.1194 269.831 97.5194L258.191 83.2294C269.001 75.9994 276.751 68.3494 281.611 59.5094C286.471 50.6694 288.681 41.2494 288.681 29.6094V26.6594H263.051V11.3394H332.881V26.6594H307.691V29.3094C307.691 40.9494 309.901 50.2294 315.051 58.4794C319.911 66.7294 327.571 73.9494 338.621 80.5794L327.871 94.7194C321.575 90.7741 315.785 86.0724 310.631 80.7194ZM365.281 125.999H347.161V2.35938H365.281V42.1294H386.941V57.4494H365.281V125.999Z" fill="#003CDC"></path><path d="M439.279 66.2894C433.979 61.1294 429.849 55.6794 427.499 50.5294C422.189 61.7194 410.999 74.2394 397.299 82.9294L385.809 69.5294C394.514 64.0715 402.069 56.965 408.049 48.6094C413.799 40.3594 417.479 31.0794 417.479 21.2094V7.36938H436.629V20.9194C436.561 30.63 439.779 40.0782 445.759 47.7294C451.209 55.2394 459.019 61.1294 467.419 65.7294L457.099 79.9994C450.52 76.3259 444.516 71.7067 439.279 66.2894ZM417.329 91.4794H435.599V123.479H499.229V139.089H417.329V91.4794ZM494.669 98.0994H476.549V2.35938H494.669V36.3594H515.999V51.8494H494.669V98.0994Z" fill="#003CDC"></path><path d="M567.371 84.0008H517.371V68.7908H635.641V84.0008H585.491V109.301H567.371V84.0008ZM552.941 123.781H618.051V139.091H534.531V95.0008H552.941V123.781ZM602.581 54.9808C595.361 60.2908 585.931 62.7908 576.511 62.7908C566.931 62.7908 557.361 60.2908 550.291 55.1308C546.553 52.4869 543.522 48.9642 541.466 44.8732C539.41 40.7821 538.392 36.2481 538.501 31.6708C538.483 27.22 539.499 22.8258 541.468 18.8345C543.438 14.8432 546.307 11.3639 549.851 8.67078C556.771 3.39078 566.341 0.300781 576.511 0.300781C587.111 0.300781 596.391 3.39078 603.321 8.84078C606.808 11.5246 609.619 14.987 611.529 18.9511C613.439 22.9152 614.395 27.2711 614.321 31.6708C614.43 36.216 613.415 40.7179 611.367 44.7771C609.319 48.8363 606.301 52.3274 602.581 54.9408V54.9808ZM576.511 15.6108C564.581 15.6108 556.331 22.2408 556.331 31.6708C556.331 41.1008 564.281 47.7308 576.511 47.7308C582.251 47.7308 587.261 46.1108 590.801 43.1608C592.578 41.8172 594.021 40.0812 595.017 38.0881C596.013 36.095 596.534 33.8987 596.541 31.6708C596.541 22.2408 588.141 15.6108 576.511 15.6108Z" fill="#003CDC"></path><path d="M725.998 52.15V70.85H757.148V86H638.898V70.85H670.338V52.44C669.732 52.0402 669.187 51.5552 668.718 51C663.418 45.84 660.028 39.66 660.028 30.82C659.998 10.17 678.998 0 697.998 0C717.448 0 735.858 10.17 735.858 30.79C735.924 34.5792 735.186 38.3394 733.694 41.8228C732.201 45.3063 729.987 48.434 727.198 51L725.998 52.15ZM723.638 137.58C716.568 142.15 707.288 144.51 698.008 144.51C688.728 144.51 679.158 142.15 672.088 137.58C665.018 133.01 660.448 126.09 660.448 117.11C660.448 108.71 664.718 101.64 671.648 96.78C678.578 91.92 687.848 89.41 698.008 89.41C708.618 89.41 717.748 92.21 724.678 96.93C731.298 101.79 735.428 108.71 735.428 117.11C735.448 126.09 730.738 132.87 723.658 137.58H723.638ZM697.998 15.32C686.068 15.32 677.818 21.32 677.818 30.79C677.818 40.26 685.818 46.25 697.998 46.25C707.868 46.25 717.998 41.39 717.998 30.79C717.998 20.19 708.048 15.32 697.998 15.32ZM711.998 108.12C707.739 105.694 702.899 104.474 697.998 104.59C686.218 104.59 678.118 109.59 678.118 117.11C678.118 124.32 686.218 129.63 697.998 129.63C702.9 129.743 707.74 128.519 711.998 126.09C715.528 123.88 717.738 120.64 717.738 117.09C717.768 113.42 715.558 110.33 711.998 108.12ZM689.198 60.69C688.894 60.7138 688.588 60.6623 688.308 60.54V70.85H708.048V60.54C707.666 60.6553 707.267 60.706 706.868 60.69C701.038 61.8701 695.029 61.8701 689.198 60.69Z" fill="#003CDC"></path></g></svg>