<svg width="24" height="24" viewBox="0 0 24 24" fill="none" xmlns="http://www.w3.org/2000/svg">
          <g clip-path="url(#clip0_45_493)">
          <path d="M7.50246 6.85121C7.48292 7.44184 7.57991 8.03053 7.78788 8.58367C7.99585 9.13682 8.31073 9.64358 8.71455 10.075C9.11837 10.5065 9.60321 10.8542 10.1414 11.0982C10.6796 11.3423 11.2606 11.478 11.8512 11.4975C12.4418 11.5171 13.0305 11.4201 13.5837 11.2121C14.1368 11.0042 14.6436 10.6893 15.075 10.2855C15.5065 9.88163 15.8542 9.39679 16.0982 8.8586C16.3423 8.32041 16.478 7.73941 16.4975 7.14879C16.5171 6.55816 16.4201 5.96947 16.2121 5.41633C16.0042 4.86319 15.6893 4.35642 15.2855 3.92497C14.8816 3.49352 14.3968 3.14583 13.8586 2.90175C13.3204 2.65768 12.7394 2.522 12.1488 2.50246C11.5582 2.48292 10.9695 2.57991 10.4163 2.78788C9.86319 2.99585 9.35642 3.31073 8.92497 3.71455C8.49352 4.11837 8.14583 4.60321 7.90175 5.1414C7.65768 5.67959 7.522 6.26059 7.50246 6.85121Z" stroke="black" stroke-width="1.5" stroke-linecap="round" stroke-linejoin="round"></path>
          <path d="M21 21.5C20.2627 19.724 19.0141 18.206 17.4121 17.138C15.8101 16.07 13.9267 15.5 12 15.5C10.0733 15.5 8.18988 16.07 6.5879 17.138C4.98591 18.206 3.73731 19.724 3 21.5" stroke="black" stroke-width="1.5" stroke-linecap="round" stroke-linejoin="round"></path>
          </g>
          <defs>
          <clipPath id="clip0_45_493">
          <rect width="24" height="24" fill="white"></rect>
          </clipPath>
          </defs>
        </svg>