<svg width="74" height="60" viewBox="0 0 74 60" fill="none" xmlns="http://www.w3.org/2000/svg">
        <path d="M36.4048 6.24023L0.609375 0V29.6539L31.2697 35L36.4048 6.24023Z" fill="#D22228"></path>
        <path d="M24.1881 12.4235L18.6529 21.479L16.7621 11.131L14.707 10.7733L9.17994 19.7801L7.31385 9.48356L4.84766 9.05273L7.55225 23.1833L9.54713 23.5302L15.055 14.6779L16.9978 24.8308L19.031 25.1857L24.78 15.9595L25.7281 20.8639L23.9607 20.5577L22.6344 22.6875L26.1638 23.3026L26.8215 26.5433L29.1452 26.947L26.6159 12.8489L24.1881 12.4235Z" fill="white"></path>
        <g clip-path="url(#clip0_13013_11104)">
        <path d="M11.3976 40L9.04225 48.7821H7.61296L5.99746 43.4524L4.38196 48.7821H2.95267L0.607422 40H2.39403L3.75287 45.536L5.3583 40H6.63661L8.24205 45.536L9.61094 40H11.3976Z" fill="#D22228"></path>
        <path d="M18.0248 48.7821H12.2422V40H18.0248V41.5299H13.9533V43.5883H17.4208V45.1183H13.9533V47.2521H18.0248V48.7821Z" fill="#D22228"></path>
        <path d="M25.5851 46.2506C25.5851 47.0508 25.3385 47.6699 24.8453 48.1178C24.3521 48.5606 23.6979 48.7821 22.8977 48.7821H19.2188V40H22.7467C23.5922 40 24.2565 40.2214 24.7396 40.6593C25.2228 41.1022 25.4643 41.7061 25.4643 42.466C25.4643 42.9089 25.3385 43.3115 25.0919 43.6638C24.8957 43.9456 24.6541 44.152 24.3773 44.2778C24.7145 44.4389 24.9812 44.6452 25.1775 44.9069C25.4492 45.2692 25.5801 45.7222 25.5801 46.2506M23.7482 42.5415C23.7482 42.2345 23.6425 41.993 23.4412 41.8067C23.2449 41.6205 22.9631 41.5299 22.6108 41.5299H20.9349V43.5531H22.6108C22.9681 43.5531 23.255 43.4575 23.4513 43.2813C23.6475 43.1052 23.7482 42.8535 23.7482 42.5415ZM23.874 46.1651C23.874 45.853 23.7834 45.6014 23.6022 45.4152C23.3959 45.2038 23.104 45.0981 22.7266 45.0981H20.9399V47.2572H22.7266C23.0939 47.2572 23.3808 47.1565 23.572 46.9502C23.7683 46.7489 23.869 46.4872 23.869 46.1751" fill="#D22228"></path>
        <path d="M34.7746 48.7821H32.983L32.4646 47.227H29.3443L28.8159 48.7821H27.0293L30.22 40H31.5587L34.7696 48.7821H34.7746ZM32.0066 45.7876L30.9347 42.5918L29.8225 45.7876H32.0016H32.0066Z" fill="#D22228"></path>
        <path d="M44.7444 40L42.3891 48.7821H40.9548L39.3393 43.4524L37.7238 48.7821H36.2945L33.9492 40H35.7409L37.0947 45.536L38.6951 40H39.9834L41.5838 45.536L42.9527 40H44.7444Z" fill="#D22228"></path>
        <path d="M51.4778 48.7821H49.6912L49.1728 47.227H46.0525L45.519 48.7821H43.7324L46.9282 40H48.2719L51.4778 48.7821ZM48.7198 45.7876L47.6479 42.5918L46.5356 45.7876H48.7198Z" fill="#D22228"></path>
        <path d="M58.5486 48.7821H56.5657L54.8496 45.2743H53.6115V48.7821H51.9004V40H55.3377C56.2084 40 56.9079 40.2617 57.4364 40.7901C57.9396 41.2884 58.1913 41.9225 58.1913 42.6875C58.1913 43.2612 58.0302 43.7594 57.7132 44.1772C57.4213 44.5546 57.0489 44.8264 56.5909 44.9874L58.5536 48.7821H58.5486ZM56.4751 42.6824C56.4751 42.3301 56.3594 42.0533 56.1329 41.842C55.9064 41.6356 55.6045 41.5299 55.227 41.5299H53.6065V43.8349H55.227C55.5944 43.8349 55.8964 43.7292 56.1279 43.5128C56.3594 43.3015 56.4751 43.0247 56.4751 42.6774" fill="#D22228"></path>
        <path d="M65.59 44.3533V44.922C65.59 45.6266 65.5498 46.16 65.4692 46.5274C65.3434 47.0861 65.0918 47.5591 64.7043 47.9416C64.4325 48.2134 64.0953 48.4248 63.6876 48.5657C63.28 48.7116 62.8472 48.7821 62.3892 48.7821H59.2236V40H62.3892C62.8573 40 63.2901 40.0654 63.6826 40.2013C64.0752 40.3372 64.4174 40.5536 64.7043 40.8405C65.0918 41.228 65.3484 41.691 65.4692 42.2194C65.5498 42.5767 65.59 43.1002 65.59 43.7997V44.3533ZM63.8739 44.3533C63.8739 43.6437 63.8537 43.1404 63.8084 42.8284C63.7631 42.5214 63.6625 42.2698 63.5115 42.0835C63.3605 41.8923 63.1793 41.7564 62.973 41.6658C62.7667 41.5752 62.515 41.5299 62.2181 41.5299H60.9247V47.2521H62.2181C62.7818 47.2521 63.2095 47.071 63.5014 46.7086C63.6625 46.5174 63.7631 46.2607 63.8084 45.9386C63.8537 45.6165 63.8739 45.0881 63.8739 44.3533Z" fill="#D22228"></path>
        <path d="M14.9199 51.9578H16.3844V59.8239H14.9199V51.9578Z" fill="#231F20"></path>
        <path d="M17.9199 51.9578H19.3442L22.7614 57.3176H22.7815V51.9578H24.1957V59.8239H22.7614L19.3542 54.454H19.3341V59.8239H17.9199V51.9578Z" fill="#231F20"></path>
        <path d="M25.7256 51.9578H27.1498L30.5671 57.3176H30.5872V51.9578H32.0014V59.8239H30.5671L27.1599 54.454H27.1398V59.8239H25.7256V51.9578Z" fill="#231F20"></path>
        <path d="M33.3341 57.2421V54.7257C33.3341 52.8636 34.9245 51.8269 36.4796 51.8269C38.1907 51.8269 39.6754 52.9391 39.6754 54.6956V57.0559C39.6754 58.918 38.085 59.9547 36.5299 59.9547C34.8188 59.9547 33.3291 58.9935 33.3291 57.2421H33.3341ZM38.2209 57.1314V54.615C38.2209 53.6689 37.4056 53.1253 36.4796 53.1253C35.7297 53.1253 34.7936 53.5229 34.7936 54.6503V57.1666C34.7936 58.1128 35.6089 58.6563 36.5349 58.6563C37.2848 58.6563 38.2209 58.2587 38.2209 57.1314Z" fill="#231F20"></path>
        <path d="M40.0635 51.9578H41.6538L43.4304 57.7504H43.4505L45.227 51.9578H46.6815L44.0796 59.8541H42.6453L40.0635 51.9578Z" fill="#231F20"></path>
        <path d="M48.7297 51.9478H50.0734L52.9722 59.8239H51.4171L50.8434 58.1481H47.8439L47.2501 59.8239H45.8057L48.7297 51.9478ZM50.4307 56.8848L49.3588 53.7293H49.3386L48.2566 56.8848H50.4307Z" fill="#231F20"></path>
        <path d="M54.7187 53.2159H52.459V51.9578H58.4378V53.2159H56.1782V59.8239H54.7237V53.2159H54.7187Z" fill="#231F20"></path>
        <path d="M59.1369 57.2421V54.7257C59.1369 52.8636 60.7272 51.8269 62.2823 51.8269C63.9934 51.8269 65.4781 52.9391 65.4781 54.6956V57.0559C65.4781 58.918 63.8877 59.9547 62.3326 59.9547C60.6215 59.9547 59.1318 58.9935 59.1318 57.2421H59.1369ZM64.0236 57.1314V54.615C64.0236 53.6689 63.2083 53.1253 62.2823 53.1253C61.5324 53.1253 60.5964 53.5229 60.5964 54.6503V57.1666C60.5964 58.1128 61.4117 58.6563 62.3377 58.6563C63.0875 58.6563 64.0236 58.2587 64.0236 57.1314Z" fill="#231F20"></path>
        <path d="M66.8115 51.9578H69.9217C71.4014 51.9578 72.5891 52.8184 72.5891 54.4288C72.5891 55.3649 72.0908 56.3362 71.034 56.7137L72.9867 59.8239H71.3863L69.5443 56.8798H68.276V59.8239H66.8115V51.9578ZM69.7456 55.6417C70.5961 55.6417 71.1598 55.2341 71.1598 54.4188C71.1598 53.4927 70.5408 53.1958 69.7255 53.1958H68.2811V55.6467H69.7456V55.6417Z" fill="#231F20"></path>
        <path d="M0.807754 58.8575L3.64117 55.5259C4.11928 54.9672 4.41621 54.4187 4.41621 53.7191V53.4826C4.41621 52.8988 4.04882 52.4458 3.23855 52.4458C2.47861 52.4458 2.05083 52.8837 2.05083 53.5631V53.7896H0.606445V53.4826C0.606445 51.9929 1.77403 51.2229 3.3694 51.2229C5.08053 51.2229 6.01158 52.2093 6.01158 53.5782C6.01158 55.1585 4.86915 56.2305 3.88274 57.3376L2.78561 58.5656V58.5908H6.07197V59.8641H0.807754V58.8626V58.8575Z" fill="#D22228"></path>
        <path d="M6.24316 57.8811V57.5741H7.71775V57.8006C7.71775 58.4901 8.30154 58.787 9.03632 58.787C9.7711 58.787 10.2995 58.2737 10.2995 57.4181C10.2995 56.3009 9.39364 56.17 8.98096 56.17H7.95932V54.8967H8.88534C9.66038 54.8967 10.1485 54.5746 10.1485 53.6838C10.1485 52.7931 9.4943 52.481 8.97089 52.481C8.15056 52.481 7.76808 52.9189 7.76808 53.5983V53.6838H6.32872V53.397C6.32872 52.174 7.31513 51.2329 9.00612 51.2329C10.8632 51.2329 11.6483 52.3502 11.6483 53.4725C11.6483 54.3985 11.1501 55.1735 10.4102 55.4252V55.4705C11.1853 55.6969 11.9201 56.3864 11.9201 57.4684C11.9201 59.1947 10.4908 60.0049 8.97089 60.0049C7.13899 60.0049 6.2482 59.089 6.2482 57.8862L6.24316 57.8811Z" fill="#D22228"></path>
        </g>
        <defs>
        <clipPath id="clip0_13013_11104">
        <rect width="72.3855" height="20" fill="white" transform="translate(0.609375 40)"></rect>
        </clipPath>
        </defs>
        </svg>